<svg width="16" height="16" viewBox="0 0 16 16" fill="none" xmlns="http://www.w3.org/2000/svg">
<path fill-rule="evenodd" clip-rule="evenodd" d="M9.30087 3.58184L12.5195 7.58184C12.7189 7.82917 12.7155 8.18251 12.5122 8.42651L9.17887 12.4265C9.04687 12.5845 8.85754 12.6665 8.6662 12.6665C8.5162 12.6665 8.36487 12.6158 8.2402 12.5118C7.95687 12.2765 7.91887 11.8558 8.15487 11.5732L11.1389 7.99251L8.26154 4.41784C8.03087 4.13117 8.0762 3.71117 8.36354 3.48051C8.6502 3.24917 9.06954 3.29517 9.30087 3.58184ZM3.6968 3.48051C3.98347 3.24984 4.4028 3.29517 4.63414 3.58184L7.8528 7.58184C8.05147 7.82917 8.0488 8.18251 7.84547 8.42651L4.51214 12.4265C4.38014 12.5845 4.1908 12.6665 3.99947 12.6665C3.84947 12.6665 3.69814 12.6158 3.57347 12.5118C3.29014 12.2765 3.25214 11.8558 3.48814 11.5732L6.47147 7.99251L3.5948 4.41784C3.36414 4.13117 3.41014 3.71117 3.6968 3.48051Z" fill="#9E9E9E"/>
</svg>
