<svg width="22" height="24" viewBox="0 0 22 24" fill="none" xmlns="http://www.w3.org/2000/svg">
<path d="M10.8033 10C10.4562 10 10.1169 10.1173 9.82828 10.3371C9.53967 10.5568 9.31473 10.8692 9.1819 11.2346C9.04907 11.6001 9.01431 12.0022 9.08203 12.3902C9.14975 12.7781 9.31689 13.1345 9.56234 13.4142C9.80778 13.6939 10.1205 13.8844 10.4609 13.9616C10.8014 14.0387 11.1542 13.9991 11.4749 13.8478C11.7956 13.6964 12.0697 13.44 12.2625 13.1111C12.4554 12.7822 12.5583 12.3956 12.5583 12C12.5583 11.4696 12.3734 10.9609 12.0443 10.5858C11.7152 10.2107 11.2688 10 10.8033 10ZM4.66081 10C4.3137 10 3.97439 10.1173 3.68578 10.3371C3.39717 10.5568 3.17223 10.8692 3.0394 11.2346C2.90657 11.6001 2.87181 12.0022 2.93953 12.3902C3.00725 12.7781 3.17439 13.1345 3.41984 13.4142C3.66528 13.6939 3.97799 13.8844 4.31842 13.9616C4.65886 14.0387 5.01173 13.9991 5.33242 13.8478C5.6531 13.6964 5.9272 13.44 6.12004 13.1111C6.31288 12.7822 6.41581 12.3956 6.41581 12C6.41581 11.4696 6.23091 10.9609 5.90178 10.5858C5.57265 10.2107 5.12626 10 4.66081 10ZM16.9458 10C16.5987 10 16.2594 10.1173 15.9708 10.3371C15.6822 10.5568 15.4572 10.8692 15.3244 11.2346C15.1916 11.6001 15.1568 12.0022 15.2245 12.3902C15.2922 12.7781 15.4594 13.1345 15.7048 13.4142C15.9503 13.6939 16.263 13.8844 16.6034 13.9616C16.9439 14.0387 17.2967 13.9991 17.6174 13.8478C17.9381 13.6964 18.2122 13.44 18.405 13.1111C18.5979 12.7822 18.7008 12.3956 18.7008 12C18.7008 11.4696 18.5159 10.9609 18.1868 10.5858C17.8577 10.2107 17.4113 10 16.9458 10Z" fill="#959595"/>
</svg>
