<svg width="22" height="24" viewBox="0 0 22 24" fill="none" xmlns="http://www.w3.org/2000/svg">
<path d="M11.4699 10C11.1228 10 10.7835 10.1173 10.4949 10.3371C10.2063 10.5568 9.98137 10.8692 9.84854 11.2346C9.71571 11.6001 9.68095 12.0022 9.74867 12.3902C9.81639 12.7781 9.98354 13.1345 10.229 13.4142C10.4744 13.6939 10.7871 13.8844 11.1276 13.9616C11.468 14.0387 11.8209 13.9991 12.1416 13.8478C12.4622 13.6964 12.7363 13.44 12.9292 13.1111C13.122 12.7822 13.2249 12.3956 13.2249 12C13.2249 11.4696 13.04 10.9609 12.7109 10.5858C12.3818 10.2107 11.9354 10 11.4699 10ZM5.32745 10C4.98034 10 4.64103 10.1173 4.35242 10.3371C4.06382 10.5568 3.83887 10.8692 3.70604 11.2346C3.57321 11.6001 3.53845 12.0022 3.60617 12.3902C3.67389 12.7781 3.84104 13.1345 4.08648 13.4142C4.33192 13.6939 4.64463 13.8844 4.98507 13.9616C5.3255 14.0387 5.67837 13.9991 5.99906 13.8478C6.31974 13.6964 6.59384 13.44 6.78668 13.1111C6.97952 12.7822 7.08245 12.3956 7.08245 12C7.08245 11.4696 6.89755 10.9609 6.56842 10.5858C6.2393 10.2107 5.7929 10 5.32745 10ZM17.6124 10C17.2653 10 16.926 10.1173 16.6374 10.3371C16.3488 10.5568 16.1239 10.8692 15.991 11.2346C15.8582 11.6001 15.8235 12.0022 15.8912 12.3902C15.9589 12.7781 16.126 13.1345 16.3715 13.4142C16.6169 13.6939 16.9296 13.8844 17.2701 13.9616C17.6105 14.0387 17.9634 13.9991 18.2841 13.8478C18.6047 13.6964 18.8788 13.44 19.0717 13.1111C19.2645 12.7822 19.3674 12.3956 19.3674 12C19.3674 11.4696 19.1825 10.9609 18.8534 10.5858C18.5243 10.2107 18.0779 10 17.6124 10Z" fill="#959595"/>
</svg>
