<svg width="22" height="24" viewBox="0 0 22 24" fill="none" xmlns="http://www.w3.org/2000/svg">
<path d="M11.1367 10C10.7895 10 10.4502 10.1173 10.1616 10.3371C9.87302 10.5568 9.64807 10.8692 9.51524 11.2346C9.38241 11.6001 9.34766 12.0022 9.41537 12.3902C9.48309 12.7781 9.65024 13.1345 9.89568 13.4142C10.1411 13.6939 10.4538 13.8844 10.7943 13.9616C11.1347 14.0387 11.4876 13.9991 11.8083 13.8478C12.1289 13.6964 12.403 13.44 12.5959 13.1111C12.7887 12.7822 12.8917 12.3956 12.8917 12C12.8917 11.4696 12.7067 10.9609 12.3776 10.5858C12.0485 10.2107 11.6021 10 11.1367 10ZM4.99415 10C4.64705 10 4.30773 10.1173 4.01913 10.3371C3.73052 10.5568 3.50557 10.8692 3.37274 11.2346C3.23991 11.6001 3.20516 12.0022 3.27287 12.3902C3.34059 12.7781 3.50774 13.1345 3.75318 13.4142C3.99862 13.6939 4.31133 13.8844 4.65177 13.9616C4.9922 14.0387 5.34508 13.9991 5.66576 13.8478C5.98645 13.6964 6.26054 13.44 6.45338 13.1111C6.64622 12.7822 6.74915 12.3956 6.74915 12C6.74915 11.4696 6.56425 10.9609 6.23512 10.5858C5.906 10.2107 5.45961 10 4.99415 10ZM17.2792 10C16.932 10 16.5927 10.1173 16.3041 10.3371C16.0155 10.5568 15.7906 10.8692 15.6577 11.2346C15.5249 11.6001 15.4902 12.0022 15.5579 12.3902C15.6256 12.7781 15.7927 13.1345 16.0382 13.4142C16.2836 13.6939 16.5963 13.8844 16.9368 13.9616C17.2772 14.0387 17.6301 13.9991 17.9508 13.8478C18.2714 13.6964 18.5455 13.44 18.7384 13.1111C18.9312 12.7822 19.0342 12.3956 19.0342 12C19.0342 11.4696 18.8492 10.9609 18.5201 10.5858C18.191 10.2107 17.7446 10 17.2792 10Z" fill="#959595"/>
</svg>
