<svg width="21" height="20" viewBox="0 0 21 20" fill="none" xmlns="http://www.w3.org/2000/svg">
<path d="M15.3333 14.9998C15.1123 14.9998 14.9003 15.0876 14.7441 15.2439C14.5878 15.4002 14.5 15.6122 14.5 15.8332C14.5 16.0542 14.4122 16.2661 14.2559 16.4224C14.0996 16.5787 13.8877 16.6665 13.6666 16.6665H5.33331C5.1123 16.6665 4.90034 16.5787 4.74406 16.4224C4.58778 16.2661 4.49998 16.0542 4.49998 15.8332V4.1665C4.49998 3.94549 4.58778 3.73353 4.74406 3.57725C4.90034 3.42097 5.1123 3.33317 5.33331 3.33317H9.49998V5.83317C9.49998 6.49621 9.76337 7.1321 10.2322 7.60094C10.7011 8.06978 11.3369 8.33317 12 8.33317H14.5V9.1665C14.5 9.38752 14.5878 9.59948 14.7441 9.75576C14.9003 9.91204 15.1123 9.99984 15.3333 9.99984C15.5543 9.99984 15.7663 9.91204 15.9226 9.75576C16.0788 9.59948 16.1666 9.38752 16.1666 9.1665V7.49984C16.1666 7.49984 16.1666 7.49984 16.1666 7.44984C16.158 7.37328 16.1412 7.29786 16.1166 7.22484C16.1202 7.19996 16.1202 7.17471 16.1166 7.14984C16.0766 7.06415 16.0231 6.98539 15.9583 6.9165L10.9583 1.9165C10.8894 1.85168 10.8107 1.79824 10.725 1.75817H10.6416C10.563 1.71603 10.4789 1.68517 10.3916 1.6665H5.33331C4.67027 1.6665 4.03439 1.9299 3.56555 2.39874C3.09671 2.86758 2.83331 3.50346 2.83331 4.1665V15.8332C2.83331 16.4962 3.09671 17.1321 3.56555 17.6009C4.03439 18.0698 4.67027 18.3332 5.33331 18.3332H13.6666C14.3297 18.3332 14.9656 18.0698 15.4344 17.6009C15.9033 17.1321 16.1666 16.4962 16.1666 15.8332C16.1666 15.6122 16.0788 15.4002 15.9226 15.2439C15.7663 15.0876 15.5543 14.9998 15.3333 14.9998ZM11.1666 4.50817L13.325 6.6665H12C11.779 6.6665 11.567 6.57871 11.4107 6.42243C11.2544 6.26615 11.1666 6.05418 11.1666 5.83317V4.50817ZM17 11.6665H14.9166C14.807 11.6659 14.6983 11.6869 14.5967 11.7284C14.4952 11.7698 14.4028 11.8309 14.325 11.9082L13.2916 12.9498L10.9583 10.2832C10.8833 10.1972 10.7913 10.1275 10.6882 10.0785C10.5852 10.0295 10.4731 10.0022 10.359 9.99832C10.2449 9.99441 10.1313 10.014 10.0251 10.0558C9.91889 10.0976 9.82241 10.1608 9.74165 10.2415L8.32498 11.6665H6.99998C6.77897 11.6665 6.567 11.7543 6.41072 11.9106C6.25444 12.0669 6.16665 12.2788 6.16665 12.4998C6.16665 12.7209 6.25444 12.9328 6.41072 13.0891C6.567 13.2454 6.77897 13.3332 6.99998 13.3332H8.66665C8.77632 13.3338 8.88504 13.3128 8.98657 13.2713C9.0881 13.2298 9.18045 13.1687 9.25831 13.0915L10.3333 12.0498L12.6666 14.7165C12.7419 14.8023 12.834 14.8717 12.9372 14.9205C13.0404 14.9692 13.1526 14.9962 13.2666 14.9998C13.3763 15.0005 13.485 14.9795 13.5866 14.938C13.6881 14.8965 13.7804 14.8354 13.8583 14.7582L15.2583 13.3332H17C17.221 13.3332 17.433 13.2454 17.5892 13.0891C17.7455 12.9328 17.8333 12.7209 17.8333 12.4998C17.8333 12.2788 17.7455 12.0669 17.5892 11.9106C17.433 11.7543 17.221 11.6665 17 11.6665Z" fill="#959595"/>
</svg>
