<svg width="21" height="20" viewBox="0 0 21 20" fill="none" xmlns="http://www.w3.org/2000/svg">
<path d="M15.6667 14.9998C15.4456 14.9998 15.2337 15.0876 15.0774 15.2439C14.9211 15.4002 14.8333 15.6122 14.8333 15.8332C14.8333 16.0542 14.7455 16.2661 14.5892 16.4224C14.433 16.5787 14.221 16.6665 14 16.6665H5.66666C5.44564 16.6665 5.23368 16.5787 5.0774 16.4224C4.92112 16.2661 4.83332 16.0542 4.83332 15.8332V4.1665C4.83332 3.94549 4.92112 3.73353 5.0774 3.57725C5.23368 3.42097 5.44564 3.33317 5.66666 3.33317H9.83332V5.83317C9.83332 6.49621 10.0967 7.1321 10.5656 7.60094C11.0344 8.06978 11.6703 8.33317 12.3333 8.33317H14.8333V9.1665C14.8333 9.38752 14.9211 9.59948 15.0774 9.75576C15.2337 9.91204 15.4456 9.99984 15.6667 9.99984C15.8877 9.99984 16.0996 9.91204 16.2559 9.75576C16.4122 9.59948 16.5 9.38752 16.5 9.1665V7.49984C16.5 7.49984 16.5 7.49984 16.5 7.44984C16.4913 7.37328 16.4745 7.29786 16.45 7.22484C16.4535 7.19996 16.4535 7.17471 16.45 7.14984C16.4099 7.06415 16.3565 6.98539 16.2917 6.9165L11.2917 1.9165C11.2228 1.85168 11.144 1.79824 11.0583 1.75817H10.975C10.8964 1.71603 10.8122 1.68517 10.725 1.6665H5.66666C5.00362 1.6665 4.36773 1.9299 3.89889 2.39874C3.43005 2.86758 3.16666 3.50346 3.16666 4.1665V15.8332C3.16666 16.4962 3.43005 17.1321 3.89889 17.6009C4.36773 18.0698 5.00362 18.3332 5.66666 18.3332H14C14.663 18.3332 15.2989 18.0698 15.7678 17.6009C16.2366 17.1321 16.5 16.4962 16.5 15.8332C16.5 15.6122 16.4122 15.4002 16.2559 15.2439C16.0996 15.0876 15.8877 14.9998 15.6667 14.9998ZM11.5 4.50817L13.6583 6.6665H12.3333C12.1123 6.6665 11.9003 6.57871 11.7441 6.42243C11.5878 6.26615 11.5 6.05418 11.5 5.83317V4.50817ZM17.3333 11.6665H15.25C15.1403 11.6659 15.0316 11.6869 14.9301 11.7284C14.8285 11.7698 14.7362 11.8309 14.6583 11.9082L13.625 12.9498L11.2917 10.2832C11.2166 10.1972 11.1247 10.1275 11.0216 10.0785C10.9185 10.0295 10.8064 10.0022 10.6924 9.99832C10.5783 9.99441 10.4646 10.014 10.3584 10.0558C10.2522 10.0976 10.1558 10.1608 10.075 10.2415L8.65832 11.6665H7.33332C7.11231 11.6665 6.90035 11.7543 6.74407 11.9106C6.58779 12.0669 6.49999 12.2788 6.49999 12.4998C6.49999 12.7209 6.58779 12.9328 6.74407 13.0891C6.90035 13.2454 7.11231 13.3332 7.33332 13.3332H8.99999C9.10966 13.3338 9.21838 13.3128 9.31991 13.2713C9.42144 13.2298 9.51379 13.1687 9.59166 13.0915L10.6667 12.0498L13 14.7165C13.0753 14.8023 13.1674 14.8717 13.2706 14.9205C13.3738 14.9692 13.4859 14.9962 13.6 14.9998C13.7097 15.0005 13.8184 14.9795 13.9199 14.938C14.0214 14.8965 14.1138 14.8354 14.1917 14.7582L15.5917 13.3332H17.3333C17.5543 13.3332 17.7663 13.2454 17.9226 13.0891C18.0789 12.9328 18.1667 12.7209 18.1667 12.4998C18.1667 12.2788 18.0789 12.0669 17.9226 11.9106C17.7663 11.7543 17.5543 11.6665 17.3333 11.6665Z" fill="#959595"/>
</svg>
