<svg width="20" height="20" viewBox="0 0 20 20" fill="none" xmlns="http://www.w3.org/2000/svg">
<path d="M15 14.9998C14.779 14.9998 14.567 15.0876 14.4107 15.2439C14.2545 15.4002 14.1667 15.6122 14.1667 15.8332C14.1667 16.0542 14.0789 16.2661 13.9226 16.4224C13.7663 16.5787 13.5543 16.6665 13.3333 16.6665H5C4.77899 16.6665 4.56702 16.5787 4.41074 16.4224C4.25446 16.2661 4.16667 16.0542 4.16667 15.8332V4.1665C4.16667 3.94549 4.25446 3.73353 4.41074 3.57725C4.56702 3.42097 4.77899 3.33317 5 3.33317H9.16667V5.83317C9.16667 6.49621 9.43006 7.1321 9.8989 7.60094C10.3677 8.06978 11.0036 8.33317 11.6667 8.33317H14.1667V9.1665C14.1667 9.38752 14.2545 9.59948 14.4107 9.75576C14.567 9.91204 14.779 9.99984 15 9.99984C15.221 9.99984 15.433 9.91204 15.5893 9.75576C15.7455 9.59948 15.8333 9.38752 15.8333 9.1665V7.49984C15.8333 7.49984 15.8333 7.49984 15.8333 7.44984C15.8247 7.37328 15.8079 7.29786 15.7833 7.22484C15.7869 7.19996 15.7869 7.17471 15.7833 7.14984C15.7433 7.06415 15.6898 6.98539 15.625 6.9165L10.625 1.9165C10.5561 1.85168 10.4774 1.79824 10.3917 1.75817H10.3083C10.2297 1.71603 10.1456 1.68517 10.0583 1.6665H5C4.33696 1.6665 3.70107 1.9299 3.23223 2.39874C2.76339 2.86758 2.5 3.50346 2.5 4.1665V15.8332C2.5 16.4962 2.76339 17.1321 3.23223 17.6009C3.70107 18.0698 4.33696 18.3332 5 18.3332H13.3333C13.9964 18.3332 14.6323 18.0698 15.1011 17.6009C15.5699 17.1321 15.8333 16.4962 15.8333 15.8332C15.8333 15.6122 15.7455 15.4002 15.5893 15.2439C15.433 15.0876 15.221 14.9998 15 14.9998ZM10.8333 4.50817L12.9917 6.6665H11.6667C11.4457 6.6665 11.2337 6.57871 11.0774 6.42243C10.9211 6.26615 10.8333 6.05418 10.8333 5.83317V4.50817ZM16.6667 11.6665H14.5833C14.4737 11.6659 14.3649 11.6869 14.2634 11.7284C14.1619 11.7698 14.0695 11.8309 13.9917 11.9082L12.9583 12.9498L10.625 10.2832C10.5499 10.1972 10.458 10.1275 10.3549 10.0785C10.2518 10.0295 10.1398 10.0022 10.0257 9.99832C9.91163 9.99441 9.79797 10.014 9.69177 10.0558C9.58557 10.0976 9.4891 10.1608 9.40833 10.2415L7.99167 11.6665H6.66667C6.44565 11.6665 6.23369 11.7543 6.07741 11.9106C5.92113 12.0669 5.83333 12.2788 5.83333 12.4998C5.83333 12.7209 5.92113 12.9328 6.07741 13.0891C6.23369 13.2454 6.44565 13.3332 6.66667 13.3332H8.33333C8.44301 13.3338 8.55172 13.3128 8.65325 13.2713C8.75479 13.2298 8.84713 13.1687 8.925 13.0915L10 12.0498L12.3333 14.7165C12.4086 14.8023 12.5007 14.8717 12.6039 14.9205C12.7071 14.9692 12.8193 14.9962 12.9333 14.9998C13.043 15.0005 13.1517 14.9795 13.2533 14.938C13.3548 14.8965 13.4471 14.8354 13.525 14.7582L14.925 13.3332H16.6667C16.8877 13.3332 17.0996 13.2454 17.2559 13.0891C17.4122 12.9328 17.5 12.7209 17.5 12.4998C17.5 12.2788 17.4122 12.0669 17.2559 11.9106C17.0996 11.7543 16.8877 11.6665 16.6667 11.6665Z" fill="#959595"/>
</svg>
