<svg width="19" height="18" viewBox="0 0 19 18" fill="none" xmlns="http://www.w3.org/2000/svg">
<path d="M9.66666 8.25C9.46774 8.25 9.27698 8.32902 9.13633 8.46967C8.99567 8.61032 8.91666 8.80109 8.91666 9V12C8.91666 12.1989 8.99567 12.3897 9.13633 12.5303C9.27698 12.671 9.46774 12.75 9.66666 12.75C9.86557 12.75 10.0563 12.671 10.197 12.5303C10.3376 12.3897 10.4167 12.1989 10.4167 12V9C10.4167 8.80109 10.3376 8.61032 10.197 8.46967C10.0563 8.32902 9.86557 8.25 9.66666 8.25ZM9.95166 5.31C9.76906 5.23499 9.56425 5.23499 9.38166 5.31C9.28959 5.3457 9.20548 5.39922 9.13416 5.4675C9.06791 5.5404 9.01464 5.62411 8.97666 5.715C8.93467 5.80401 8.91412 5.90162 8.91666 6C8.91609 6.0987 8.93501 6.19655 8.97233 6.28793C9.00965 6.37931 9.06465 6.46242 9.13416 6.5325C9.20706 6.59875 9.29077 6.65202 9.38166 6.69C9.49528 6.73668 9.61863 6.75474 9.74087 6.74258C9.8631 6.73043 9.98048 6.68844 10.0827 6.6203C10.1849 6.55216 10.2688 6.45996 10.327 6.3518C10.3853 6.24364 10.416 6.12284 10.4167 6C10.4139 5.80142 10.3362 5.61123 10.1992 5.4675C10.1278 5.39922 10.0437 5.3457 9.95166 5.31ZM9.66666 1.5C8.1833 1.5 6.73325 1.93987 5.49988 2.76398C4.26651 3.58809 3.30522 4.75943 2.73756 6.12987C2.1699 7.50032 2.02138 9.00832 2.31077 10.4632C2.60016 11.918 3.31446 13.2544 4.36336 14.3033C5.41225 15.3522 6.74862 16.0665 8.20348 16.3559C9.65834 16.6453 11.1663 16.4968 12.5368 15.9291C13.9072 15.3614 15.0786 14.4001 15.9027 13.1668C16.7268 11.9334 17.1667 10.4834 17.1667 9C17.1667 8.01509 16.9727 7.03982 16.5958 6.12987C16.2188 5.21993 15.6664 4.39314 14.97 3.6967C14.2735 3.00026 13.4467 2.44781 12.5368 2.0709C11.6268 1.69399 10.6516 1.5 9.66666 1.5ZM9.66666 15C8.47997 15 7.31993 14.6481 6.33323 13.9888C5.34654 13.3295 4.57751 12.3925 4.12338 11.2961C3.66925 10.1997 3.55043 8.99334 3.78194 7.82946C4.01346 6.66557 4.5849 5.59647 5.42402 4.75736C6.26313 3.91824 7.33223 3.3468 8.49612 3.11529C9.66 2.88378 10.8664 3.0026 11.9628 3.45672C13.0591 3.91085 13.9962 4.67988 14.6555 5.66658C15.3148 6.65327 15.6667 7.81331 15.6667 9C15.6667 10.5913 15.0345 12.1174 13.9093 13.2426C12.7841 14.3679 11.258 15 9.66666 15Z" fill="#A7A7A7"/>
</svg>
