<svg width="19" height="18" viewBox="0 0 19 18" fill="none" xmlns="http://www.w3.org/2000/svg">
<path d="M9.33332 8.25C9.1344 8.25 8.94364 8.32902 8.80299 8.46967C8.66233 8.61032 8.58332 8.80109 8.58332 9V12C8.58332 12.1989 8.66233 12.3897 8.80299 12.5303C8.94364 12.671 9.1344 12.75 9.33332 12.75C9.53223 12.75 9.72299 12.671 9.86365 12.5303C10.0043 12.3897 10.0833 12.1989 10.0833 12V9C10.0833 8.80109 10.0043 8.61032 9.86365 8.46967C9.72299 8.32902 9.53223 8.25 9.33332 8.25ZM9.61832 5.31C9.43572 5.23499 9.23091 5.23499 9.04832 5.31C8.95625 5.3457 8.87214 5.39922 8.80082 5.4675C8.73457 5.5404 8.6813 5.62411 8.64332 5.715C8.60133 5.80401 8.58078 5.90162 8.58332 6C8.58275 6.0987 8.60167 6.19655 8.63899 6.28793C8.67631 6.37931 8.73131 6.46242 8.80082 6.5325C8.87372 6.59875 8.95743 6.65202 9.04832 6.69C9.16194 6.73668 9.28529 6.75474 9.40753 6.74258C9.52976 6.73043 9.64714 6.68844 9.74935 6.6203C9.85156 6.55216 9.93547 6.45996 9.9937 6.3518C10.0519 6.24364 10.0827 6.12284 10.0833 6C10.0806 5.80142 10.0029 5.61123 9.86582 5.4675C9.79449 5.39922 9.71038 5.3457 9.61832 5.31ZM9.33332 1.5C7.84996 1.5 6.39991 1.93987 5.16654 2.76398C3.93317 3.58809 2.97188 4.75943 2.40422 6.12987C1.83656 7.50032 1.68804 9.00832 1.97743 10.4632C2.26682 11.918 2.98112 13.2544 4.03002 14.3033C5.07891 15.3522 6.41528 16.0665 7.87014 16.3559C9.325 16.6453 10.833 16.4968 12.2034 15.9291C13.5739 15.3614 14.7452 14.4001 15.5693 13.1668C16.3934 11.9334 16.8333 10.4834 16.8333 9C16.8333 8.01509 16.6393 7.03982 16.2624 6.12987C15.8855 5.21993 15.3331 4.39314 14.6366 3.6967C13.9402 3.00026 13.1134 2.44781 12.2034 2.0709C11.2935 1.69399 10.3182 1.5 9.33332 1.5ZM9.33332 15C8.14663 15 6.98659 14.6481 5.9999 13.9888C5.0132 13.3295 4.24417 12.3925 3.79004 11.2961C3.33591 10.1997 3.21709 8.99334 3.44861 7.82946C3.68012 6.66557 4.25156 5.59647 5.09068 4.75736C5.92979 3.91824 6.99889 3.3468 8.16278 3.11529C9.32666 2.88378 10.5331 3.0026 11.6294 3.45672C12.7258 3.91085 13.6628 4.67988 14.3221 5.66658C14.9814 6.65327 15.3333 7.81331 15.3333 9C15.3333 10.5913 14.7012 12.1174 13.576 13.2426C12.4507 14.3679 10.9246 15 9.33332 15Z" fill="#A7A7A7"/>
</svg>
