<svg width="20" height="20" viewBox="0 0 20 20" fill="none" xmlns="http://www.w3.org/2000/svg">
<path d="M2.91668 5C2.75186 5 2.59074 5.04887 2.4537 5.14044C2.31666 5.23201 2.20985 5.36216 2.14678 5.51443C2.0837 5.6667 2.0672 5.83426 2.09936 5.99591C2.13151 6.15756 2.21088 6.30604 2.32742 6.42259C2.44397 6.53913 2.59245 6.6185 2.7541 6.65065C2.91575 6.68281 3.08331 6.66631 3.23558 6.60323C3.38785 6.54016 3.518 6.43335 3.60957 6.29631C3.70114 6.15927 3.75001 5.99815 3.75001 5.83333C3.75001 5.61232 3.66221 5.40036 3.50593 5.24408C3.34965 5.0878 3.13769 5 2.91668 5ZM6.25001 6.66667H17.9167C18.1377 6.66667 18.3497 6.57887 18.5059 6.42259C18.6622 6.26631 18.75 6.05435 18.75 5.83333C18.75 5.61232 18.6622 5.40036 18.5059 5.24408C18.3497 5.0878 18.1377 5 17.9167 5H6.25001C6.029 5 5.81704 5.0878 5.66076 5.24408C5.50447 5.40036 5.41668 5.61232 5.41668 5.83333C5.41668 6.05435 5.50447 6.26631 5.66076 6.42259C5.81704 6.57887 6.029 6.66667 6.25001 6.66667ZM6.25001 9.16667C6.08519 9.16667 5.92408 9.21554 5.78704 9.30711C5.64999 9.39868 5.54318 9.52882 5.48011 9.6811C5.41704 9.83337 5.40054 10.0009 5.43269 10.1626C5.46484 10.3242 5.54421 10.4727 5.66076 10.5893C5.7773 10.7058 5.92578 10.7852 6.08744 10.8173C6.24909 10.8495 6.41664 10.833 6.56891 10.7699C6.72119 10.7068 6.85133 10.6 6.9429 10.463C7.03447 10.3259 7.08334 10.1648 7.08334 10C7.08334 9.77899 6.99555 9.56702 6.83927 9.41074C6.68299 9.25446 6.47102 9.16667 6.25001 9.16667ZM9.58334 13.3333C9.41853 13.3333 9.25741 13.3822 9.12037 13.4738C8.98333 13.5653 8.87652 13.6955 8.81345 13.8478C8.75037 14 8.73387 14.1676 8.76602 14.3292C8.79818 14.4909 8.87755 14.6394 8.99409 14.7559C9.11063 14.8725 9.25912 14.9518 9.42077 14.984C9.58242 15.0161 9.74998 14.9996 9.90225 14.9366C10.0545 14.8735 10.1847 14.7667 10.2762 14.6296C10.3678 14.4926 10.4167 14.3315 10.4167 14.1667C10.4167 13.9457 10.3289 13.7337 10.1726 13.5774C10.0163 13.4211 9.80436 13.3333 9.58334 13.3333ZM17.9167 9.16667H9.58334C9.36233 9.16667 9.15037 9.25446 8.99409 9.41074C8.83781 9.56702 8.75001 9.77899 8.75001 10C8.75001 10.221 8.83781 10.433 8.99409 10.5893C9.15037 10.7455 9.36233 10.8333 9.58334 10.8333H17.9167C18.1377 10.8333 18.3497 10.7455 18.5059 10.5893C18.6622 10.433 18.75 10.221 18.75 10C18.75 9.77899 18.6622 9.56702 18.5059 9.41074C18.3497 9.25446 18.1377 9.16667 17.9167 9.16667ZM17.9167 13.3333H12.9167C12.6957 13.3333 12.4837 13.4211 12.3274 13.5774C12.1711 13.7337 12.0833 13.9457 12.0833 14.1667C12.0833 14.3877 12.1711 14.5996 12.3274 14.7559C12.4837 14.9122 12.6957 15 12.9167 15H17.9167C18.1377 15 18.3497 14.9122 18.5059 14.7559C18.6622 14.5996 18.75 14.3877 18.75 14.1667C18.75 13.9457 18.6622 13.7337 18.5059 13.5774C18.3497 13.4211 18.1377 13.3333 17.9167 13.3333Z" fill="#959595"/>
</svg>
