<svg width="20" height="20" viewBox="0 0 20 20" fill="none" xmlns="http://www.w3.org/2000/svg">
<path d="M18.0917 16.9085L15 13.8418C16.2001 12.3455 16.7813 10.4462 16.624 8.53458C16.4668 6.62292 15.5831 4.84415 14.1546 3.56403C12.7262 2.28392 10.8615 1.59976 8.94411 1.65222C7.02671 1.70469 5.20228 2.4898 3.84596 3.84612C2.48965 5.20243 1.70454 7.02686 1.65207 8.94427C1.5996 10.8617 2.28377 12.7263 3.56388 14.1548C4.844 15.5832 6.62276 16.4669 8.53443 16.6242C10.4461 16.7814 12.3454 16.2002 13.8417 15.0002L16.9083 18.0668C16.9858 18.1449 17.078 18.2069 17.1795 18.2492C17.2811 18.2915 17.39 18.3133 17.5 18.3133C17.61 18.3133 17.7189 18.2915 17.8205 18.2492C17.922 18.2069 18.0142 18.1449 18.0917 18.0668C18.2419 17.9114 18.3258 17.7038 18.3258 17.4877C18.3258 17.2715 18.2419 17.0639 18.0917 16.9085ZM9.16668 15.0002C8.01295 15.0002 6.88514 14.658 5.92585 14.0171C4.96657 13.3761 4.21889 12.4651 3.77738 11.3992C3.33587 10.3332 3.22035 9.16036 3.44543 8.0288C3.67051 6.89725 4.22608 5.85785 5.04189 5.04204C5.8577 4.22624 6.8971 3.67066 8.02865 3.44558C9.16021 3.2205 10.3331 3.33602 11.399 3.77753C12.4649 4.21904 13.3759 4.96672 14.0169 5.926C14.6579 6.88529 15 8.01311 15 9.16683C15 10.7139 14.3854 12.1977 13.2915 13.2916C12.1975 14.3856 10.7138 15.0002 9.16668 15.0002Z" fill="#959595"/>
</svg>
