<svg width="21" height="20" viewBox="0 0 21 20" fill="none" xmlns="http://www.w3.org/2000/svg">
<path d="M19 12.5002H17.3333V10.0002C17.3333 9.77915 17.2455 9.56719 17.0892 9.41091C16.933 9.25463 16.721 9.16683 16.5 9.16683H11.5V7.50016H13.1667C13.3877 7.50016 13.5996 7.41236 13.7559 7.25608C13.9122 7.0998 14 6.88784 14 6.66683V1.66683C14 1.44582 13.9122 1.23385 13.7559 1.07757C13.5996 0.921293 13.3877 0.833496 13.1667 0.833496H8.16665C7.94564 0.833496 7.73368 0.921293 7.5774 1.07757C7.42112 1.23385 7.33332 1.44582 7.33332 1.66683V6.66683C7.33332 6.88784 7.42112 7.0998 7.5774 7.25608C7.73368 7.41236 7.94564 7.50016 8.16665 7.50016H9.83332V9.16683H4.83332C4.61231 9.16683 4.40035 9.25463 4.24407 9.41091C4.08779 9.56719 3.99999 9.77915 3.99999 10.0002V12.5002H2.33332C2.11231 12.5002 1.90035 12.588 1.74407 12.7442C1.58779 12.9005 1.49999 13.1125 1.49999 13.3335V18.3335C1.49999 18.5545 1.58779 18.7665 1.74407 18.9228C1.90035 19.079 2.11231 19.1668 2.33332 19.1668H7.33332C7.55434 19.1668 7.7663 19.079 7.92258 18.9228C8.07886 18.7665 8.16665 18.5545 8.16665 18.3335V13.3335C8.16665 13.1125 8.07886 12.9005 7.92258 12.7442C7.7663 12.588 7.55434 12.5002 7.33332 12.5002H5.66665V10.8335H15.6667V12.5002H14C13.779 12.5002 13.567 12.588 13.4107 12.7442C13.2545 12.9005 13.1667 13.1125 13.1667 13.3335V18.3335C13.1667 18.5545 13.2545 18.7665 13.4107 18.9228C13.567 19.079 13.779 19.1668 14 19.1668H19C19.221 19.1668 19.433 19.079 19.5892 18.9228C19.7455 18.7665 19.8333 18.5545 19.8333 18.3335V13.3335C19.8333 13.1125 19.7455 12.9005 19.5892 12.7442C19.433 12.588 19.221 12.5002 19 12.5002ZM6.49999 14.1668V17.5002H3.16666V14.1668H6.49999ZM8.99999 5.8335V2.50016H12.3333V5.8335H8.99999ZM18.1667 17.5002H14.8333V14.1668H18.1667V17.5002Z" fill="#959595"/>
</svg>
