<svg width="20" height="20" viewBox="0 0 20 20" fill="none" xmlns="http://www.w3.org/2000/svg">
<g clip-path="url(#clip0_6247_57913)">
<path d="M18.3333 12.5002H16.6667V10.0002C16.6667 9.77915 16.5789 9.56719 16.4226 9.41091C16.2663 9.25463 16.0544 9.16683 15.8333 9.16683H10.8333V7.50016H12.5C12.721 7.50016 12.933 7.41236 13.0893 7.25608C13.2455 7.0998 13.3333 6.88784 13.3333 6.66683V1.66683C13.3333 1.44582 13.2455 1.23385 13.0893 1.07757C12.933 0.921293 12.721 0.833496 12.5 0.833496H7.50001C7.279 0.833496 7.06703 0.921293 6.91075 1.07757C6.75447 1.23385 6.66668 1.44582 6.66668 1.66683V6.66683C6.66668 6.88784 6.75447 7.0998 6.91075 7.25608C7.06703 7.41236 7.279 7.50016 7.50001 7.50016H9.16668V9.16683H4.16668C3.94566 9.16683 3.7337 9.25463 3.57742 9.41091C3.42114 9.56719 3.33334 9.77915 3.33334 10.0002V12.5002H1.66668C1.44566 12.5002 1.2337 12.588 1.07742 12.7442C0.921141 12.9005 0.833344 13.1125 0.833344 13.3335V18.3335C0.833344 18.5545 0.921141 18.7665 1.07742 18.9228C1.2337 19.079 1.44566 19.1668 1.66668 19.1668H6.66668C6.88769 19.1668 7.09965 19.079 7.25593 18.9228C7.41221 18.7665 7.50001 18.5545 7.50001 18.3335V13.3335C7.50001 13.1125 7.41221 12.9005 7.25593 12.7442C7.09965 12.588 6.88769 12.5002 6.66668 12.5002H5.00001V10.8335H15V12.5002H13.3333C13.1123 12.5002 12.9004 12.588 12.7441 12.7442C12.5878 12.9005 12.5 13.1125 12.5 13.3335V18.3335C12.5 18.5545 12.5878 18.7665 12.7441 18.9228C12.9004 19.079 13.1123 19.1668 13.3333 19.1668H18.3333C18.5544 19.1668 18.7663 19.079 18.9226 18.9228C19.0789 18.7665 19.1667 18.5545 19.1667 18.3335V13.3335C19.1667 13.1125 19.0789 12.9005 18.9226 12.7442C18.7663 12.588 18.5544 12.5002 18.3333 12.5002ZM5.83334 14.1668V17.5002H2.50001V14.1668H5.83334ZM8.33334 5.8335V2.50016H11.6667V5.8335H8.33334ZM17.5 17.5002H14.1667V14.1668H17.5V17.5002Z" fill="#959595"/>
</g>
<defs>
<clipPath id="clip0_6247_57913">
<rect width="20" height="20" fill="white"/>
</clipPath>
</defs>
</svg>
