<svg width="21" height="20" viewBox="0 0 21 20" fill="none" xmlns="http://www.w3.org/2000/svg">
<path d="M18.6667 12.5002H17V10.0002C17 9.77915 16.9122 9.56719 16.7559 9.41091C16.5996 9.25463 16.3877 9.16683 16.1667 9.16683H11.1667V7.50016H12.8333C13.0543 7.50016 13.2663 7.41236 13.4226 7.25608C13.5789 7.0998 13.6667 6.88784 13.6667 6.66683V1.66683C13.6667 1.44582 13.5789 1.23385 13.4226 1.07757C13.2663 0.921293 13.0543 0.833496 12.8333 0.833496H7.83332C7.61231 0.833496 7.40035 0.921293 7.24407 1.07757C7.08779 1.23385 6.99999 1.44582 6.99999 1.66683V6.66683C6.99999 6.88784 7.08779 7.0998 7.24407 7.25608C7.40035 7.41236 7.61231 7.50016 7.83332 7.50016H9.49999V9.16683H4.49999C4.27898 9.16683 4.06701 9.25463 3.91073 9.41091C3.75445 9.56719 3.66666 9.77915 3.66666 10.0002V12.5002H1.99999C1.77898 12.5002 1.56701 12.588 1.41073 12.7442C1.25445 12.9005 1.16666 13.1125 1.16666 13.3335V18.3335C1.16666 18.5545 1.25445 18.7665 1.41073 18.9228C1.56701 19.079 1.77898 19.1668 1.99999 19.1668H6.99999C7.221 19.1668 7.43296 19.079 7.58924 18.9228C7.74552 18.7665 7.83332 18.5545 7.83332 18.3335V13.3335C7.83332 13.1125 7.74552 12.9005 7.58924 12.7442C7.43296 12.588 7.221 12.5002 6.99999 12.5002H5.33332V10.8335H15.3333V12.5002H13.6667C13.4456 12.5002 13.2337 12.588 13.0774 12.7442C12.9211 12.9005 12.8333 13.1125 12.8333 13.3335V18.3335C12.8333 18.5545 12.9211 18.7665 13.0774 18.9228C13.2337 19.079 13.4456 19.1668 13.6667 19.1668H18.6667C18.8877 19.1668 19.0996 19.079 19.2559 18.9228C19.4122 18.7665 19.5 18.5545 19.5 18.3335V13.3335C19.5 13.1125 19.4122 12.9005 19.2559 12.7442C19.0996 12.588 18.8877 12.5002 18.6667 12.5002ZM6.16666 14.1668V17.5002H2.83332V14.1668H6.16666ZM8.66666 5.8335V2.50016H12V5.8335H8.66666ZM17.8333 17.5002H14.5V14.1668H17.8333V17.5002Z" fill="#959595"/>
</svg>
