<svg width="20" height="20" viewBox="0 0 20 20" fill="none" xmlns="http://www.w3.org/2000/svg">
<path d="M17.5 1.6665H2.50002C2.27901 1.6665 2.06704 1.7543 1.91076 1.91058C1.75448 2.06686 1.66669 2.27882 1.66669 2.49984V17.4998C1.66669 17.7209 1.75448 17.9328 1.91076 18.0891C2.06704 18.2454 2.27901 18.3332 2.50002 18.3332H17.5C17.721 18.3332 17.933 18.2454 18.0893 18.0891C18.2456 17.9328 18.3334 17.7209 18.3334 17.4998V2.49984C18.3334 2.27882 18.2456 2.06686 18.0893 1.91058C17.933 1.7543 17.721 1.6665 17.5 1.6665ZM9.16669 16.6665H3.33335V8.33317H9.16669V16.6665ZM16.6667 16.6665H10.8334V8.33317H16.6667V16.6665ZM16.6667 6.6665H3.33335V3.33317H16.6667V6.6665Z" fill="#959595"/>
</svg>
